<svg width="500" height="500" xmlns="http://www.w3.org/2000/svg" version="1.1">

 <g>
  <title>Layer 1</title>
  <g display=" inline" transform="matrix(2.46211 0 0 2.84305 -18.1496 -124.429)" id="layer3">
   <path stroke-miterlimit="4" stroke-width="0" stroke="#000000" fill="#a2a1a1" id="path670" d="m117.15295,187.27165c3.78847,-1.21254 5.32595,-5.31708 0,-7.5284l-71.37313,0.19554c-14.6149,-5.47459 -22.24477,-14.99231 -22.87851,-29.62473c1.47553,-16.11319 10.40151,-26.7982 30.1136,-29.62474c1.19843,-0.36592 1.95657,-1.17212 2.63982,-2.05321c-1.1299,-28.70386 14.83519,-35.14352 32.06903,-36.56651c11.95087,0.7436 23.06523,4.0407 30.11359,19.74982c1.00666,1.6441 2.38504,1.80133 3.91087,1.36881c3.63788,-2.27036 7.27574,-3.99166 10.91362,-5.21271c5.16156,-1.73245 10.3231,-2.45786 15.48466,-2.3157c21.43129,0.60651 55.89272,18.73522 41.65062,59.34727c0.96036,3.63617 2.98511,4.93068 6.55069,2.83537c17.38792,-40.50298 -15.77521,-68.13084 -48.59239,-69.31994c-9.2316,0.21114 -17.45695,2.43478 -25.12726,5.7685c-8.08244,-12.57992 -19.815,-19.03282 -35.19772,-19.35873c-28.70666,1.65301 -39.34757,19.31596 -39.79296,39.0108c-27.38754,8.46711 -30.4247,23.00261 -32.02323,36.66428c1.99142,15.7562 7.86053,29.60727 29.77448,36.5665l71.76422,0.09778z"/>
  </g>
  <g transform="matrix(2.43614 0 0 2.88357 -297.151 -249.711)" id="layer4">
   <path stroke-miterlimit="4" stroke-width="0" stroke="#ffc000" fill="#ffc000" id="path13671" d="m236.70604,226.38161c0.74062,-1.61842 0.30426,-2.75699 0.30426,-2.75699c-0.007,-0.88019 -2.51268,-2.37659 -3.18434,-2.76549c-0.34715,-0.20103 5.31702,0.17107 22.16295,0.27667l20.94746,0.1313l3.15823,-1.54401c6.01154,-2.93887 11.97968,-6.84729 15.6077,-10.22105l1.49234,-1.38776l-1.16302,-1.2562l-1.16299,-1.2562l6.9292,-2.35481c3.81113,-1.29514 6.97253,-2.31154 7.02545,-2.25862c0.05292,0.05289 -0.87683,3.28194 -2.06604,7.17567l-2.16226,7.0795l-1.25787,-1.2467l-1.2579,-1.2467l-1.24512,1.21384c-1.77612,1.73151 -5.93542,5.0097 -8.24084,6.49512c-3.90424,2.51556 -6.51782,3.88599 -11.5318,6.04669l-3.1875,1.3736l-21.24945,0.06732l-22.82878,0.33499l2.91034,-1.90018z"/>
  </g>
 </g>
</svg>